<?xml version="1.0" standalone="no"?>
<!DOCTYPE svg PUBLIC "-//W3C//DTD SVG 20010904//EN"
 "http://www.w3.org/TR/2001/REC-SVG-20010904/DTD/svg10.dtd">
<svg version="1.0" xmlns="http://www.w3.org/2000/svg"
 width="1280.000000pt" height="640.000000pt" viewBox="0 0 1280.000000 640.000000"
 preserveAspectRatio="xMidYMid meet">

<g transform="translate(0.000000,640.000000) scale(0.100000,-0.100000)"
fill="#000000" stroke="none">
<path d="M1 5845 c0 -333 4 -555 9 -555 5 0 7 6 4 13 -3 8 5 18 18 25 21 10
22 11 3 12 -17 1 -16 3 7 16 16 8 28 20 27 27 0 9 -2 9 -6 0 -2 -7 -10 -13
-16 -13 -7 0 4 14 23 30 22 19 27 28 15 23 -18 -6 -18 -5 -6 10 7 9 10 17 6
17 -4 0 2 8 13 18 12 9 22 26 24 37 2 11 22 34 46 51 23 17 39 34 35 38 -5 4
-3 7 2 6 22 -5 35 1 35 14 0 8 9 18 20 21 11 3 20 11 20 17 0 6 -6 6 -15 -2
-9 -7 -18 -10 -21 -7 -9 9 35 29 48 21 7 -4 8 -3 4 4 -4 7 3 16 18 23 13 6 23
17 20 23 -4 12 47 48 84 60 12 4 20 11 17 16 -3 5 -1 11 5 15 5 3 10 0 10 -7
1 -8 7 -5 16 7 8 11 20 19 25 17 5 -1 8 4 7 10 -2 7 5 12 15 12 10 -1 16 1 13
4 -3 3 12 13 33 23 22 9 49 27 60 38 12 12 25 20 29 17 4 -2 18 2 32 10 14 7
21 13 17 14 -5 0 -17 -5 -28 -10 -10 -6 -19 -8 -19 -6 0 6 41 29 114 63 32 15
45 18 36 8 -10 -12 -8 -12 19 1 36 18 36 18 15 39 -15 15 -14 15 12 9 16 -4
31 -7 34 -6 23 0 30 3 26 10 -3 5 12 16 32 26 29 13 33 13 18 1 -11 -8 -24
-15 -30 -15 -5 0 -7 -2 -4 -5 3 -3 22 2 42 11 25 12 32 20 24 26 -9 5 -7 8 7
6 36 -2 56 2 51 11 -4 5 4 7 16 3 16 -4 19 -2 13 8 -5 8 -4 11 3 6 11 -6 74
18 102 40 25 19 79 34 86 23 3 -6 18 -2 37 9 18 10 59 25 92 32 33 7 62 16 65
20 10 15 208 59 282 64 14 0 24 5 20 10 -3 5 2 6 12 3 9 -4 14 -3 11 2 -6 11
31 25 44 16 5 -3 12 -1 16 5 3 5 11 10 16 10 6 0 7 -4 4 -10 -8 -13 4 -13 41
0 24 8 65 15 117 19 5 1 5 5 2 11 -4 7 -355 10 -1016 10 l-1009 0 1 -555z
m864 507 c-3 -3 -11 0 -18 7 -9 10 -8 11 6 5 10 -3 15 -9 12 -12z m-660 -582
c3 -6 -1 -7 -9 -4 -18 7 -21 14 -7 14 6 0 13 -4 16 -10z"/>
<path d="M2053 6393 c9 -2 25 -2 35 0 9 3 1 5 -18 5 -19 0 -27 -2 -17 -5z"/>
<path d="M7758 6393 c28 -2 76 -2 105 0 28 2 5 3 -53 3 -58 0 -81 -1 -52 -3z"/>
<path d="M7962 6395 c8 -9 101 -12 133 -4 20 5 2 7 -54 8 -46 1 -82 -1 -79 -4z"/>
<path d="M8153 6394 c8 -9 355 -9 364 -1 3 4 -78 7 -182 7 -104 0 -186 -3
-182 -6z"/>
<path d="M8536 6392 c-6 -9 201 -8 211 1 3 4 -41 7 -100 7 -58 0 -108 -4 -111
-8z"/>
<path d="M8760 6389 c0 -6 12 -10 28 -9 71 5 229 -1 242 -9 10 -7 14 -26 12
-65 0 -30 3 -58 8 -61 7 -4 6 -13 0 -25 -6 -11 -10 -38 -9 -62 0 -24 -2 -80
-5 -125 -5 -62 -3 -83 6 -83 9 0 9 -3 0 -12 -7 -7 -12 -38 -12 -69 0 -51 -3
-58 -22 -65 -25 -8 -176 -7 -1328 2 -415 3 -800 5 -855 5 -55 -1 -104 -1 -110
-1 -50 3 -786 12 -1260 15 -955 7 -1936 16 -2135 20 -118 2 -190 -1 -198 -7
-8 -7 -12 -7 -12 0 0 19 -456 11 -630 -12 -19 -2 -55 -7 -80 -10 -25 -2 -70
-10 -100 -16 -30 -7 -64 -13 -76 -15 -44 -6 -171 -37 -204 -50 -19 -7 -50 -16
-69 -19 -19 -4 -57 -17 -85 -30 -28 -13 -69 -30 -91 -37 -50 -17 -67 -28 -58
-42 4 -6 0 -8 -11 -4 -28 11 -222 -90 -281 -146 -17 -16 -47 -37 -68 -48 -21
-11 -36 -23 -33 -27 3 -5 -6 -16 -20 -26 -13 -11 -24 -25 -24 -32 0 -7 -9 -16
-20 -19 -17 -5 -26 -24 -17 -40 1 -2 -8 -12 -21 -20 -12 -9 -20 -21 -17 -26 4
-5 -1 -9 -9 -9 -19 0 -22 -20 -3 -20 7 -1 5 -6 -6 -14 -9 -7 -17 -18 -17 -24
0 -6 -6 -12 -12 -14 -7 -3 -14 -16 -15 -29 -3 -41 -11 -80 -17 -86 -3 -3 -1
-14 4 -24 7 -12 7 -20 0 -24 -13 -8 -13 -82 0 -90 6 -4 8 -10 5 -15 -3 -5 -1
-11 4 -15 6 -3 8 -12 5 -20 -3 -7 3 -22 13 -32 10 -11 19 -32 20 -47 1 -15 10
-34 19 -41 9 -6 14 -17 10 -23 -4 -7 -2 -12 4 -12 6 0 14 -8 18 -19 7 -19 88
-91 102 -91 4 0 6 -9 3 -19 -3 -13 2 -21 15 -25 10 -4 31 -20 45 -36 15 -16
41 -37 59 -46 36 -19 97 -62 113 -81 6 -6 39 -23 75 -38 36 -15 72 -34 82 -42
9 -8 42 -21 73 -29 31 -8 81 -26 110 -40 30 -13 60 -24 68 -24 8 0 40 -9 73
-21 32 -11 71 -18 86 -16 15 2 25 0 22 -5 -3 -4 6 -8 21 -8 14 0 40 -6 58 -13
18 -7 46 -13 62 -12 17 1 41 -4 55 -11 14 -6 57 -15 95 -18 39 -4 84 -9 100
-12 17 -2 61 -6 100 -10 38 -3 72 -7 76 -9 3 -2 21 0 41 4 22 5 40 5 46 -1 6
-6 45 -9 88 -8 44 1 86 1 94 1 12 0 348 0 400 1 8 0 52 -2 98 -4 46 -2 86 0
88 4 2 4 14 5 25 3 16 -3 306 -6 419 -4 8 0 453 -3 988 -6 672 -4 972 -3 967
5 -4 7 2 7 19 0 14 -5 122 -9 238 -9 117 0 224 0 238 -1 14 -1 32 -2 40 -1 15
0 60 0 375 1 253 0 253 0 486 -5 176 -4 224 -3 260 10 37 12 41 12 25 1 -16
-13 -14 -15 27 -13 25 1 49 5 53 10 10 9 27 9 21 -1 -3 -4 56 -8 131 -10 217
-4 296 -2 331 8 17 5 29 6 27 2 -2 -4 205 -7 460 -7 255 0 464 -2 464 -5 0 -3
57 -4 127 -3 71 2 146 2 168 2 22 -1 126 -2 230 -2 223 -2 235 -6 217 -65 -15
-48 -15 -97 -2 -122 6 -10 6 -21 1 -24 -13 -8 -13 -126 0 -126 7 0 5 -10 -5
-25 -17 -25 -19 -77 -4 -107 4 -9 4 -18 -2 -20 -5 -2 -11 -16 -12 -32 -2 -19
-10 -31 -26 -37 -13 -5 -358 -7 -805 -4 -563 3 -778 2 -767 -6 12 -9 11 -9 -5
-2 -32 13 -511 16 -536 2 -15 -8 -19 -8 -15 0 9 14 4 14 -29 1 -18 -7 -24 -7
-20 0 8 13 -540 13 -584 0 -17 -5 -31 -4 -33 0 -5 15 -456 16 -470 2 -9 -9 -7
-12 8 -12 11 0 28 -6 39 -14 34 -23 473 -246 486 -246 6 0 17 -6 23 -14 6 -8
72 -45 147 -83 92 -46 134 -73 131 -82 -4 -12 22 -36 32 -29 2 2 13 -6 25 -16
12 -11 21 -16 21 -12 0 8 99 -42 124 -63 23 -20 146 -21 1704 -20 427 0 838
-7 927 -16 17 -1 71 -6 120 -9 50 -4 104 -9 120 -13 17 -3 41 -7 55 -9 14 -1
50 -5 80 -9 30 -3 61 -8 68 -10 8 -3 10 0 6 7 -4 7 -3 8 4 4 15 -9 104 -32
159 -41 24 -4 46 -11 49 -16 3 -6 14 -7 24 -4 10 3 37 -1 61 -9 24 -8 69 -20
99 -27 89 -20 219 -58 239 -69 11 -5 29 -10 41 -10 11 0 51 -14 88 -31 37 -17
94 -39 127 -50 102 -32 453 -215 490 -255 6 -6 28 -21 50 -34 22 -12 57 -36
78 -54 68 -55 267 -257 267 -271 0 -16 76 -95 92 -95 6 0 8 -3 5 -6 -4 -4 -14
-1 -24 7 -15 13 -16 12 -9 -6 5 -11 10 -28 13 -37 3 -10 13 -20 22 -23 9 -3
17 -16 17 -32 1 -16 11 -53 22 -84 11 -32 22 -74 23 -95 2 -22 9 -50 16 -64 8
-16 9 -26 2 -31 -5 -3 -9 -10 -8 -15 5 -16 -13 -167 -22 -191 -4 -12 -9 -39
-11 -58 -1 -20 -8 -41 -15 -47 -7 -6 -13 -17 -13 -24 0 -8 -4 -14 -10 -14 -5
0 -10 -5 -10 -11 0 -13 -31 -82 -40 -89 -14 -11 -18 -38 -7 -50 9 -10 7 -11
-10 -5 -17 5 -23 2 -23 -9 0 -9 -3 -16 -7 -16 -5 0 -19 -17 -33 -38 -13 -20
-45 -56 -70 -80 -25 -23 -44 -49 -42 -57 2 -9 -5 -15 -16 -15 -25 0 -44 -23
-36 -44 4 -11 1 -16 -12 -16 -16 0 -17 2 -4 10 8 5 11 10 7 10 -5 0 -22 -13
-38 -30 -17 -16 -46 -37 -64 -46 -19 -9 -33 -20 -30 -24 3 -4 -5 -10 -16 -13
-15 -4 -20 -11 -15 -23 5 -12 2 -15 -10 -10 -10 4 -32 -3 -53 -17 -20 -13 -81
-45 -136 -72 -55 -27 -101 -52 -103 -57 -2 -4 -10 -8 -18 -8 -20 0 -227 -108
-241 -126 -6 -9 -20 -14 -30 -13 -10 1 -31 -3 -48 -10 -16 -7 -55 -22 -85 -33
-30 -11 -64 -23 -75 -28 -11 -5 -36 -12 -55 -15 -19 -4 -45 -13 -57 -21 -12
-8 -35 -14 -51 -14 -17 0 -52 -6 -78 -14 -74 -22 -163 -44 -224 -56 -30 -7
-62 -14 -70 -17 -8 -4 -26 -7 -40 -8 -14 -1 -77 -10 -140 -19 -63 -10 -149
-22 -190 -26 -41 -5 -1556 -9 -3366 -9 l-3292 -1 -4 25 c-3 13 -2 27 1 31 3 3
7 36 8 72 1 37 2 67 3 67 1 0 2 17 3 38 1 20 -2 37 -8 37 -7 0 -7 3 0 8 6 4
10 51 10 105 -1 53 3 97 7 97 4 0 5 7 2 15 -5 11 1 15 22 17 29 1 405 8 434 8
8 -1 67 0 130 0 63 1 123 1 133 1 36 -1 308 0 330 1 12 1 58 0 102 -1 212 -4
435 0 459 9 15 5 25 6 22 2 -3 -5 126 -7 287 -5 371 4 2576 13 3052 12 198 0
383 1 410 2 28 1 59 1 70 1 153 -5 767 4 816 12 19 4 59 9 89 12 117 12 163
19 240 34 30 6 75 14 100 19 25 4 55 12 67 19 12 7 28 10 35 7 8 -3 45 8 82
25 38 17 74 29 80 28 19 -4 57 13 226 97 205 102 250 127 250 140 0 6 18 21
40 35 22 14 40 29 40 35 0 5 13 19 29 30 16 10 28 23 25 27 -3 4 7 15 21 24
14 9 25 21 25 27 0 5 7 15 16 22 9 6 17 23 17 38 0 17 6 29 19 32 10 4 18 12
17 18 -2 12 13 55 33 95 18 35 18 203 -1 225 -12 14 -12 17 0 17 12 0 12 2 0
9 -7 5 -11 13 -7 19 3 6 0 15 -9 19 -8 5 -16 19 -18 31 -2 12 -9 28 -15 34 -7
7 -12 17 -12 24 0 6 -11 19 -24 30 -14 10 -23 21 -20 26 3 4 -4 13 -16 20 -11
7 -20 16 -20 20 0 13 -75 81 -122 110 -27 16 -48 33 -48 38 0 13 -111 70 -123
63 -5 -3 -7 -2 -4 4 8 13 -41 36 -55 27 -6 -4 -8 -3 -5 3 6 9 -139 83 -163 83
-7 0 -46 14 -88 31 -43 17 -86 32 -97 33 -11 2 -60 13 -110 25 -49 12 -108 26
-130 31 -46 11 -235 36 -345 46 -118 10 -1133 13 -1152 2 -10 -5 -18 -5 -18 0
0 12 -1705 13 -1736 2 -15 -6 -24 -6 -24 0 0 6 -25 10 -56 10 -32 0 -53 -4
-49 -9 3 -6 -7 -6 -27 0 -43 12 -403 12 -446 0 -17 -5 -32 -6 -32 -2 0 5 -520
5 -720 -1 -8 0 -125 0 -260 1 -135 1 -249 1 -255 0 -5 -1 -14 -1 -18 0 -4 1
-127 1 -274 1 -200 0 -269 -3 -281 -12 -12 -10 -14 -10 -8 -1 4 8 2 13 -6 13
-32 1 -732 0 -1249 -1 -311 -1 -575 1 -586 5 -19 6 -20 13 -18 124 1 64 -1
125 -6 134 -5 9 -5 19 -1 22 5 3 8 26 8 51 -1 25 4 45 9 45 7 0 6 3 0 8 -6 4
-9 34 -8 67 2 33 3 68 4 78 0 9 4 17 9 17 5 0 7 6 5 13 -4 9 56 11 284 9 196
-2 297 0 311 8 11 6 20 7 20 3 0 -4 12 -9 28 -9 59 -4 1622 -1 1622 3 0 1 -60
42 -134 92 -143 96 -322 191 -345 183 -8 -2 -11 0 -8 6 8 11 -270 142 -302
142 -12 0 -21 4 -21 8 0 5 -22 19 -50 32 -27 13 -58 31 -69 41 -11 10 -52 35
-93 56 l-73 38 -262 1 c-156 1 -260 -2 -257 -8 3 -5 -6 -6 -23 -1 -38 11 -622
10 -652 -1 -16 -6 -21 -5 -17 3 5 8 -26 11 -106 11 -62 1 -160 5 -218 11 -58
5 -154 14 -215 19 -60 4 -150 15 -200 23 -242 41 -285 48 -350 63 -38 8 -92
21 -120 29 -27 7 -70 18 -95 25 -25 6 -63 14 -85 17 -22 3 -45 9 -51 14 -7 5
-56 23 -110 40 -55 17 -110 37 -124 44 -33 17 -101 30 -80 16 9 -7 10 -11 3
-11 -6 0 -18 7 -27 15 -8 8 -22 15 -31 15 -9 0 -13 4 -10 10 4 6 -1 7 -11 3
-13 -5 -15 -3 -9 7 5 9 4 11 -3 6 -10 -6 -54 13 -187 80 -27 15 -84 43 -126
64 -42 22 -79 46 -83 55 -3 10 -12 15 -21 11 -8 -3 -17 0 -21 6 -5 7 -2 8 7 3
12 -8 12 -6 0 8 -8 10 -29 25 -47 33 -19 9 -34 20 -34 25 0 5 -6 9 -14 9 -8 0
-31 16 -50 35 -20 19 -38 35 -41 35 -2 0 -24 18 -47 39 -70 64 -102 91 -112
91 -4 0 -6 7 -2 15 3 8 2 15 -3 15 -15 0 -72 64 -77 87 -4 13 -12 23 -20 23
-8 0 -14 7 -14 15 0 8 -8 15 -17 15 -13 0 -14 3 -5 8 9 6 7 14 -8 30 -12 12
-25 22 -29 22 -5 0 -7 8 -4 18 2 10 -5 26 -17 37 l-21 19 3 -153 3 -152 50
-22 c28 -12 51 -25 53 -29 2 -4 11 -8 19 -8 9 0 13 -3 10 -6 -5 -5 -78 25
-129 53 -5 2 -8 -64 -8 -147 l0 -150 33 -20 c17 -11 27 -20 22 -20 -6 0 -21 7
-33 16 l-22 15 0 -566 0 -566 233 1 c127 0 240 0 250 0 9 0 63 0 120 0 123 1
349 2 434 2 34 0 66 -3 72 -6 5 -3 7 -27 4 -53 -9 -102 -10 -183 0 -183 5 0 2
-10 -6 -23 -14 -22 -13 -26 5 -55 11 -18 15 -32 9 -32 -17 0 -13 -37 9 -86 12
-24 18 -49 15 -54 -3 -6 -1 -10 5 -10 6 0 15 -11 20 -25 5 -14 14 -25 19 -25
5 0 12 -11 15 -25 4 -14 11 -25 17 -25 6 0 7 -4 4 -10 -3 -5 3 -15 15 -22 11
-7 20 -18 20 -24 0 -7 11 -19 24 -28 14 -9 38 -27 53 -41 35 -32 86 -68 138
-96 22 -12 42 -25 45 -28 3 -4 20 -13 38 -20 17 -8 32 -18 32 -23 0 -5 5 -6
10 -3 5 3 10 1 10 -4 0 -6 3 -10 8 -10 22 4 42 -2 37 -11 -4 -6 5 -10 20 -10
15 0 24 -4 20 -10 -3 -5 0 -7 8 -4 8 3 17 -2 21 -11 3 -10 12 -15 21 -11 8 3
15 1 15 -5 0 -6 3 -8 8 -6 4 3 25 -3 46 -14 22 -10 44 -19 50 -19 6 0 23 -6
38 -14 36 -19 101 -41 112 -38 5 2 30 -4 55 -12 48 -16 175 -44 226 -51 17 -2
78 -11 136 -19 90 -14 252 -28 312 -27 52 0 111 0 417 0 184 0 353 0 375 0 68
0 351 1 570 1 116 0 215 0 220 0 6 0 332 2 726 4 394 1 721 6 727 10 7 4 12 4
12 -1 0 -4 42 -8 94 -8 52 0 92 3 90 7 -3 4 5 4 18 0 29 -10 925 -8 957 3 13
4 21 3 18 -1 -8 -14 215 -5 232 9 12 9 13 9 7 -1 -8 -13 41 -15 239 -12 50 1
128 1 175 0 47 0 100 4 118 9 20 6 30 6 27 0 -7 -11 -1 -11 405 -7 36 0 579
-1 615 -1 17 -1 56 -1 87 -1 31 -1 67 4 79 10 17 9 20 9 14 0 -6 -9 4 -11 39
-9 25 2 46 2 46 -1 0 -4 70 -4 270 1 47 1 73 1 303 2 139 1 201 -3 209 -11 6
-6 11 -34 11 -62 -1 -27 3 -50 8 -50 6 0 6 -8 -1 -19 -13 -26 -13 -108 0 -116
8 -5 7 -11 -1 -21 -14 -17 -21 -134 -8 -150 5 -6 4 -24 -3 -42 -9 -23 -9 -37
0 -56 10 -23 9 -26 -21 -35 -27 -9 -140 -14 -242 -11 -148 5 -260 1 -258 -8 2
-8 -5 -8 -25 -1 -23 9 -77 11 -322 8 -14 0 -79 0 -145 0 -66 0 -129 -1 -140
-1 -11 0 -72 0 -135 0 -63 1 -124 1 -135 1 -11 -1 -85 -1 -165 -1 -80 1 -154
0 -165 0 -21 0 -235 0 -270 1 -11 0 -49 1 -85 2 -118 3 -181 -1 -176 -10 4 -5
-11 -5 -34 0 -44 10 -865 9 -923 -2 -20 -3 -39 -3 -42 1 -3 4 -24 6 -47 5 -78
-5 -421 -9 -498 -6 -43 2 -649 0 -1020 -3 -234 -2 -432 -3 -440 -3 -520 3
-1213 0 -1217 -6 -2 -4 -13 -5 -23 -2 -38 12 -549 7 -530 -5 20 -13 8 -13 -26
0 -15 6 -104 13 -198 16 -94 3 -225 12 -291 20 -66 7 -147 16 -180 19 -33 3
-84 11 -113 16 -30 6 -66 8 -80 5 -19 -5 -23 -4 -13 3 10 7 1 11 -35 16 -27 4
-76 13 -109 20 -33 7 -98 21 -145 30 -47 9 -94 21 -105 26 -11 5 -29 11 -40
14 -50 10 -180 50 -290 87 -110 38 -154 56 -318 132 -44 21 -61 24 -76 16 -28
-14 -38 -12 -17 3 17 13 14 16 -38 45 -30 18 -58 32 -62 32 -9 0 -126 72 -142
88 -8 7 -19 9 -25 5 -6 -4 -8 -1 -5 8 4 10 -7 21 -31 32 -20 10 -62 42 -95 72
-32 30 -67 57 -77 60 -11 4 -19 12 -19 19 0 8 -15 26 -33 42 -45 40 -88 94
-82 104 3 4 -7 11 -20 14 -14 4 -23 11 -20 16 3 5 -10 26 -29 46 -23 25 -32
42 -26 49 6 7 2 15 -11 23 -11 7 -17 17 -14 22 3 6 1 10 -4 10 -8 0 -11 -335
-11 -1110 l0 -1110 6400 0 6400 0 0 3200 0 3200 -2020 0 c-1434 0 -2020 -3
-2020 -11z m-715 -657 c-3 -3 -11 0 -18 7 -9 10 -8 11 6 5 10 -3 15 -9 12 -12z
m110 -52 c3 -6 -1 -7 -9 -4 -18 7 -21 14 -7 14 6 0 13 -4 16 -10z m-3945 -4
c0 -2 -7 -7 -16 -10 -8 -3 -12 -2 -9 4 6 10 25 14 25 6z m4005 -34 c-3 -3 -11
0 -18 7 -9 10 -8 11 6 5 10 -3 15 -9 12 -12z m-5900 -30 c-3 -3 -11 0 -18 7
-9 10 -8 11 6 5 10 -3 15 -9 12 -12z m1820 -12 c3 -6 -1 -7 -9 -4 -18 7 -21
14 -7 14 6 0 13 -4 16 -10z m60 -30 c3 -6 -1 -7 -9 -4 -18 7 -21 14 -7 14 6 0
13 -4 16 -10z m-540 -10 c3 -6 -1 -7 -9 -4 -18 7 -21 14 -7 14 6 0 13 -4 16
-10z m-1185 -26 c0 -2 -9 0 -20 6 -11 6 -20 13 -20 16 0 2 9 0 20 -6 11 -6 20
-13 20 -16z m1250 -4 c8 -5 11 -10 5 -10 -5 0 -17 5 -25 10 -8 5 -10 10 -5 10
6 0 17 -5 25 -10z m-1195 -20 c3 -6 -1 -7 -9 -4 -18 7 -21 14 -7 14 6 0 13 -4
16 -10z m4750 0 c3 -6 -1 -7 -9 -4 -18 7 -21 14 -7 14 6 0 13 -4 16 -10z
m1510 -10 c-3 -5 -14 -10 -23 -9 -14 0 -13 2 3 9 27 11 27 11 20 0z m-4985
-10 c8 -5 11 -10 5 -10 -5 0 -17 5 -25 10 -8 5 -10 10 -5 10 6 0 17 -5 25 -10z
m4740 -10 c8 -5 11 -10 5 -10 -5 0 -17 5 -25 10 -8 5 -10 10 -5 10 6 0 17 -5
25 -10z m-2905 -30 c3 -6 -1 -7 -9 -4 -18 7 -21 14 -7 14 6 0 13 -4 16 -10z
m2989 -29 c-2 -3 -12 3 -22 13 -16 17 -16 18 5 5 12 -7 20 -15 17 -18z m-4969
-21 c-3 -5 -12 -10 -18 -10 -7 0 -6 4 3 10 19 12 23 12 15 0z m2485 0 c-8 -5
-19 -10 -25 -10 -5 0 -3 5 5 10 8 5 20 10 25 10 6 0 3 -5 -5 -10z m629 7 c-2
-1 -13 -9 -24 -17 -19 -14 -19 -14 -6 3 7 9 18 17 24 17 6 0 8 -1 6 -3z
m-2733 -45 c-5 -4 -66 26 -66 33 0 3 16 -3 35 -12 19 -9 33 -18 31 -21z m520
22 c18 -14 18 -14 -6 -3 -31 14 -36 19 -24 19 6 0 19 -7 30 -16z m2960 0 c18
-14 18 -14 -6 -3 -31 14 -36 19 -24 19 6 0 19 -7 30 -16z m1209 -4 c3 -5 -4
-6 -15 -3 -11 3 -22 9 -25 13 -3 5 4 6 15 3 11 -3 22 -9 25 -13z m-2625 6 c0
-2 -7 -7 -16 -10 -8 -3 -12 -2 -9 4 6 10 25 14 25 6z m2419 -9 c-2 -1 -13 -9
-24 -17 -19 -14 -19 -14 -6 3 7 9 18 17 24 17 6 0 8 -1 6 -3z m-3890 -33 c14
-12 -19 -1 -35 12 -18 14 -18 14 6 3 14 -6 27 -13 29 -15z m3531 16 c0 -5 -2
-10 -4 -10 -3 0 -8 5 -11 10 -3 6 -1 10 4 10 6 0 11 -4 11 -10z m-4061 -26
c14 -12 -19 -1 -35 12 -18 14 -18 14 6 3 14 -6 27 -13 29 -15z m740 22 c-2 -2
-15 -9 -29 -15 -24 -11 -24 -11 -6 3 16 13 49 24 35 12z m1208 -2 c-3 -3 -12
-4 -19 -1 -8 3 -5 6 6 6 11 1 17 -2 13 -5z m609 -9 c-11 -8 -25 -15 -30 -15
-6 1 0 7 14 15 32 19 40 18 16 0z m940 -1 c18 -14 18 -14 -6 -3 -31 14 -36 19
-24 19 6 0 19 -7 30 -16z m-4166 -54 c-8 -5 -19 -10 -25 -10 -5 0 -3 5 5 10 8
5 20 10 25 10 6 0 3 -5 -5 -10z m755 0 c3 -5 1 -10 -4 -10 -6 0 -11 5 -11 10
0 6 2 10 4 10 3 0 8 -4 11 -10z m51 -26 c18 -14 18 -14 -6 -3 -31 14 -36 19
-24 19 6 0 19 -7 30 -16z m420 1 c-11 -8 -25 -15 -30 -15 -6 1 0 7 14 15 32
19 40 18 16 0z m1854 5 c-8 -5 -19 -10 -25 -10 -5 0 -3 5 5 10 8 5 20 10 25
10 6 0 3 -5 -5 -10z m-490 -15 c17 -9 30 -18 30 -21 0 -4 -59 23 -69 32 -10 9
13 3 39 -11z m-2673 -7 c-14 -11 52 -13 345 -15 200 -1 418 -3 485 -5 72 -2
118 0 110 5 -7 5 0 6 18 1 17 -4 197 -8 400 -10 204 -2 370 -3 370 -4 0 -1
607 -2 680 -1 49 0 300 1 318 0 171 -7 278 -7 299 1 17 5 30 5 34 -1 3 -6 75
-9 172 -9 92 0 341 -2 555 -5 230 -2 397 -1 412 5 16 6 25 6 25 0 0 -6 116 -9
308 -7 276 3 310 5 337 21 20 12 24 13 11 2 -11 -9 -18 -18 -15 -20 3 -3 1080
-17 1239 -16 281 2 795 -7 875 -15 69 -7 235 -25 265 -29 179 -24 376 -58 415
-71 17 -6 18 -5 5 5 -13 10 -12 11 5 4 11 -4 58 -18 105 -31 47 -14 117 -34
155 -46 39 -11 77 -21 85 -22 28 -4 205 -69 217 -80 6 -7 33 -17 60 -24 43
-11 360 -157 373 -172 3 -3 39 -27 80 -54 41 -27 80 -54 86 -59 6 -6 29 -20
52 -31 23 -11 42 -25 42 -31 0 -7 11 -19 24 -27 12 -9 54 -47 92 -86 38 -39
75 -71 83 -71 8 0 11 -3 8 -6 -4 -4 5 -17 19 -29 15 -13 24 -27 21 -32 -3 -5
7 -24 23 -42 17 -18 30 -39 30 -47 0 -8 4 -14 9 -14 10 0 53 -93 88 -193 23
-65 26 -88 28 -234 1 -123 5 -166 16 -179 12 -16 12 -17 -3 -11 -11 4 -18 2
-19 -6 -3 -52 -8 -87 -14 -96 -7 -12 -1082 -7 -1094 5 -3 3 -6 92 -7 197 0
165 -3 208 -14 237 -1 3 -2 9 0 15 1 5 -6 15 -15 21 -9 7 -16 16 -16 21 0 4
-10 24 -21 43 -12 19 -21 38 -20 43 1 4 -2 7 -6 7 -5 0 -14 11 -20 25 -7 14
-23 30 -36 36 -14 7 -22 17 -19 25 3 8 1 14 -4 14 -13 0 -54 36 -48 41 2 3
-22 20 -53 39 -31 19 -67 44 -79 56 -25 25 -254 144 -276 144 -8 0 -45 14 -82
30 -37 16 -76 30 -86 30 -11 0 -36 7 -57 16 -38 16 -110 33 -172 40 -19 2 -44
8 -55 13 -22 10 -202 37 -305 46 -198 17 -231 18 -650 16 -96 0 -434 1 -750 4
-316 3 -840 5 -1165 5 -324 0 -597 1 -605 1 -77 3 -1530 13 -1570 11 -25 -2
-1467 8 -1785 12 -165 2 -405 4 -534 5 -203 1 -232 3 -227 16 3 8 1 15 -3 15
-13 0 -22 31 -13 44 12 17 8 238 -5 261 -8 14 -8 25 0 40 6 11 11 58 11 105
l1 84 35 8 c33 7 98 8 270 4 41 -1 91 4 110 10 46 16 58 17 37 2z m3123 8 c0
-3 -4 -8 -10 -11 -5 -3 -10 -1 -10 4 0 6 5 11 10 11 6 0 10 -2 10 -4z m2410
-10 c0 -2 -7 -7 -16 -10 -8 -3 -12 -2 -9 4 6 10 25 14 25 6z m-1065 -16 c3 -6
-1 -7 -9 -4 -18 7 -21 14 -7 14 6 0 13 -4 16 -10z m-6380 -88 c-3 -3 -11 0
-18 7 -9 10 -8 11 6 5 10 -3 15 -9 12 -12z m101 -48 c18 -14 18 -14 -6 -3 -31
14 -36 19 -24 19 6 0 19 -7 30 -16z m-101 -264 c3 -6 -1 -7 -9 -4 -18 7 -21
14 -7 14 6 0 13 -4 16 -10z m1332 -46 c-3 -3 -12 -4 -19 -1 -8 3 -5 6 6 6 11
1 17 -2 13 -5z m-447 -84 c8 -5 11 -10 5 -10 -5 0 -17 5 -25 10 -8 5 -10 10
-5 10 6 0 17 -5 25 -10z m-425 -108 c-3 -3 -11 0 -18 7 -9 10 -8 11 6 5 10 -3
15 -9 12 -12z m5385 8 c8 -5 11 -10 5 -10 -5 0 -17 5 -25 10 -8 5 -10 10 -5
10 6 0 17 -5 25 -10z m45 -28 c-3 -3 -11 0 -18 7 -9 10 -8 11 6 5 10 -3 15 -9
12 -12z m-1745 -2 c8 -5 11 -10 5 -10 -5 0 -17 5 -25 10 -8 5 -10 10 -5 10 6
0 17 -5 25 -10z m555 0 c3 -6 -1 -7 -9 -4 -18 7 -21 14 -7 14 6 0 13 -4 16
-10z m2980 -20 c3 -6 -1 -7 -9 -4 -18 7 -21 14 -7 14 6 0 13 -4 16 -10z
m-3450 -28 c-3 -3 -11 0 -18 7 -9 10 -8 11 6 5 10 -3 15 -9 12 -12z m-2520 -2
c-3 -5 -12 -10 -18 -10 -7 0 -6 4 3 10 19 12 23 12 15 0z m1340 -10 c3 -6 -1
-7 -9 -4 -18 7 -21 14 -7 14 6 0 13 -4 16 -10z m1765 0 c8 -5 11 -10 5 -10 -5
0 -17 5 -25 10 -8 5 -10 10 -5 10 6 0 17 -5 25 -10z m3560 0 c-8 -5 -19 -10
-25 -10 -5 0 -3 5 5 10 8 5 20 10 25 10 6 0 3 -5 -5 -10z m-8010 -20 c-8 -5
-19 -10 -25 -10 -5 0 -3 5 5 10 8 5 20 10 25 10 6 0 3 -5 -5 -10z m4519 -16
c14 -12 -19 -1 -35 12 -18 14 -18 14 6 3 14 -6 27 -13 29 -15z m1058 20 c-3
-3 -12 -4 -19 -1 -8 3 -5 6 6 6 11 1 17 -2 13 -5z m1933 -50 c0 -2 -13 2 -30
11 -16 9 -30 18 -30 21 0 2 14 -2 30 -11 17 -9 30 -18 30 -21z m-7570 16 c-8
-5 -19 -10 -25 -10 -5 0 -3 5 5 10 8 5 20 10 25 10 6 0 3 -5 -5 -10z m4624
-19 c-2 -3 -12 3 -22 13 -16 17 -16 18 5 5 12 -7 20 -15 17 -18z m2731 19 c-3
-5 -12 -10 -18 -10 -7 0 -6 4 3 10 19 12 23 12 15 0z m-6280 -18 c-3 -3 -11 0
-18 7 -9 10 -8 11 6 5 10 -3 15 -9 12 -12z m1790 0 c-3 -3 -11 0 -18 7 -9 10
-8 11 6 5 10 -3 15 -9 12 -12z m51 -18 c18 -14 18 -14 -6 -3 -31 14 -36 19
-24 19 6 0 19 -7 30 -16z m1204 6 c8 -5 11 -10 5 -10 -5 0 -17 5 -25 10 -8 5
-10 10 -5 10 6 0 17 -5 25 -10z m1756 -6 c18 -14 18 -14 -6 -3 -31 14 -36 19
-24 19 6 0 19 -7 30 -16z m1759 -9 c22 -14 36 -25 30 -25 -5 1 -28 12 -50 25
-22 14 -35 25 -30 25 6 -1 28 -12 50 -25z m-2765 5 c-8 -5 -19 -10 -25 -10 -5
0 -3 5 5 10 8 5 20 10 25 10 6 0 3 -5 -5 -10z m1215 -10 c-3 -5 -12 -10 -18
-10 -7 0 -6 4 3 10 19 12 23 12 15 0z m-3098 -26 c-3 -3 -12 -4 -19 -1 -8 3
-5 6 6 6 11 1 17 -2 13 -5z m2430 0 c-3 -3 -12 -4 -19 -1 -8 3 -5 6 6 6 11 1
17 -2 13 -5z m-2477 -14 c-8 -5 -19 -10 -25 -10 -5 0 -3 5 5 10 8 5 20 10 25
10 6 0 3 -5 -5 -10z m1290 0 c8 -5 11 -10 5 -10 -5 0 -17 5 -25 10 -8 5 -10
10 -5 10 6 0 17 -5 25 -10z m-4194 -26 c18 -14 18 -14 -6 -3 -31 14 -36 19
-24 19 6 0 19 -7 30 -16z m4259 -12 c-3 -3 -11 0 -18 7 -9 10 -8 11 6 5 10 -3
15 -9 12 -12z m576 -9 c13 -17 13 -17 -6 -3 -11 8 -22 16 -24 17 -2 2 0 3 6 3
6 0 17 -8 24 -17z m2944 -3 c3 -6 -1 -7 -9 -4 -18 7 -21 14 -7 14 6 0 13 -4
16 -10z m-7480 -10 c3 -5 1 -10 -4 -10 -6 0 -11 5 -11 10 0 6 2 10 4 10 3 0 8
-4 11 -10z m400 -8 c-3 -3 -11 0 -18 7 -9 10 -8 11 6 5 10 -3 15 -9 12 -12z
m4525 8 c-8 -5 -19 -10 -25 -10 -5 0 -3 5 5 10 8 5 20 10 25 10 6 0 3 -5 -5
-10z m1807 4 c-3 -3 -12 -4 -19 -1 -8 3 -5 6 6 6 11 1 17 -2 13 -5z m-2692
-14 c13 -6 15 -9 5 -9 -8 0 -22 4 -30 9 -18 12 -2 12 25 0z m545 0 c8 -5 11
-10 5 -10 -5 0 -17 5 -25 10 -8 5 -10 10 -5 10 6 0 17 -5 25 -10z m-2910 -10
c8 -5 11 -10 5 -10 -5 0 -17 5 -25 10 -8 5 -10 10 -5 10 6 0 17 -5 25 -10z
m1970 0 c-8 -5 -19 -10 -25 -10 -5 0 -3 5 5 10 8 5 20 10 25 10 6 0 3 -5 -5
-10z m614 -4 c-10 -8 -21 -12 -24 -10 -5 6 21 24 34 24 6 0 1 -6 -10 -14z
m946 4 c8 -5 11 -10 5 -10 -5 0 -17 5 -25 10 -8 5 -10 10 -5 10 6 0 17 -5 25
-10z m2364 -15 c11 -8 16 -15 10 -15 -5 0 -18 7 -28 15 -11 8 -16 15 -10 15 5
0 18 -7 28 -15z m-4689 -5 c3 -6 -1 -7 -9 -4 -18 7 -21 14 -7 14 6 0 13 -4 16
-10z m-3010 -10 c3 -6 -1 -7 -9 -4 -18 7 -21 14 -7 14 6 0 13 -4 16 -10z
m3715 0 c-8 -5 -19 -10 -25 -10 -5 0 -3 5 5 10 8 5 20 10 25 10 6 0 3 -5 -5
-10z m1109 -16 c14 -12 -19 -1 -35 12 -18 14 -18 14 6 3 14 -6 27 -13 29 -15z
m-1769 6 c8 -5 11 -10 5 -10 -5 0 -17 5 -25 10 -8 5 -10 10 -5 10 6 0 17 -5
25 -10z m2500 0 c-8 -5 -19 -10 -25 -10 -5 0 -3 5 5 10 8 5 20 10 25 10 6 0 3
-5 -5 -10z m-7460 -20 c-8 -5 -19 -10 -25 -10 -5 0 -3 5 5 10 8 5 20 10 25 10
6 0 3 -5 -5 -10z m184 -21 c45 -28 18 -22 -34 7 -25 13 -34 22 -21 18 14 -4
38 -15 55 -25z m2423 15 c-3 -3 -12 -4 -19 -1 -8 3 -5 6 6 6 11 1 17 -2 13 -5z
m2950 0 c-3 -3 -12 -4 -19 -1 -8 3 -5 6 6 6 11 1 17 -2 13 -5z m773 -58 c0 -7
-100 40 -113 53 -6 6 17 -2 51 -19 34 -16 62 -32 62 -34z m-1290 44 c8 -5 11
-10 5 -10 -5 0 -17 5 -25 10 -8 5 -10 10 -5 10 6 0 17 -5 25 -10z m625 -18
c-3 -3 -11 0 -18 7 -9 10 -8 11 6 5 10 -3 15 -9 12 -12z m455 14 c0 -2 -11
-11 -25 -20 -14 -9 -25 -13 -25 -8 0 5 10 14 23 20 27 13 27 13 27 8z m-2475
-16 c-3 -5 -12 -10 -18 -10 -7 0 -6 4 3 10 19 12 23 12 15 0z m1460 -18 c-3
-3 -11 0 -18 7 -9 10 -8 11 6 5 10 -3 15 -9 12 -12z m2215 8 c-8 -5 -19 -10
-25 -10 -5 0 -3 5 5 10 8 5 20 10 25 10 6 0 3 -5 -5 -10z m-440 -10 c18 -12 2
-12 -25 0 -13 6 -15 9 -5 9 8 0 22 -4 30 -9z m-6595 -10 c3 -6 -1 -7 -9 -4
-18 7 -21 14 -7 14 6 0 13 -4 16 -10z m4865 -10 c8 -5 11 -10 5 -10 -5 0 -17
5 -25 10 -8 5 -10 10 -5 10 6 0 17 -5 25 -10z m864 -5 c-10 -8 -23 -15 -28
-15 -6 0 -1 7 10 15 10 8 23 15 28 15 6 0 1 -7 -10 -15z m3831 5 c3 -6 -1 -7
-9 -4 -18 7 -21 14 -7 14 6 0 13 -4 16 -10z m-3460 -18 c-3 -3 -11 0 -18 7 -9
10 -8 11 6 5 10 -3 15 -9 12 -12z m551 2 c18 -14 18 -14 -6 -3 -31 14 -36 19
-24 19 6 0 19 -7 30 -16z m304 6 c-8 -5 -19 -10 -25 -10 -5 0 -3 5 5 10 8 5
20 10 25 10 6 0 3 -5 -5 -10z m3815 -8 c-3 -3 -11 0 -18 7 -9 10 -8 11 6 5 10
-3 15 -9 12 -12z m-6885 4 c0 -2 -7 -7 -16 -10 -8 -3 -12 -2 -9 4 6 10 25 14
25 6z m1795 -16 c-3 -5 -14 -10 -23 -9 -14 0 -13 2 3 9 27 11 27 11 20 0z
m484 -16 c14 -12 -19 -1 -35 12 -18 14 -18 14 6 3 14 -6 27 -13 29 -15z m1721
16 c8 -5 11 -10 5 -10 -5 0 -17 5 -25 10 -8 5 -10 10 -5 10 6 0 17 -5 25 -10z
m595 0 c3 -5 1 -10 -4 -10 -6 0 -11 5 -11 10 0 6 2 10 4 10 3 0 8 -4 11 -10z
m1135 0 c8 -5 11 -10 5 -10 -5 0 -17 5 -25 10 -8 5 -10 10 -5 10 6 0 17 -5 25
-10z m-6463 -6 c-3 -3 -12 -4 -19 -1 -8 3 -5 6 6 6 11 1 17 -2 13 -5z m1798
-4 c13 -6 15 -9 5 -9 -8 0 -22 4 -30 9 -18 12 -2 12 25 0z m1945 0 c-8 -5 -19
-10 -25 -10 -5 0 -3 5 5 10 8 5 20 10 25 10 6 0 3 -5 -5 -10z m-2450 -10 c-8
-5 -19 -10 -25 -10 -5 0 -3 5 5 10 8 5 20 10 25 10 6 0 3 -5 -5 -10z m2300
-16 c0 -2 -9 0 -20 6 -11 6 -20 13 -20 16 0 2 9 0 20 -6 11 -6 20 -13 20 -16z
m670 6 c-8 -5 -19 -10 -25 -10 -5 0 -3 5 5 10 8 5 20 10 25 10 6 0 3 -5 -5
-10z m-7243 -16 c-3 -3 -12 -4 -19 -1 -8 3 -5 6 6 6 11 1 17 -2 13 -5z m-210
-10 c-3 -3 -12 -4 -19 -1 -8 3 -5 6 6 6 11 1 17 -2 13 -5z m-52 -24 c-3 -5
-12 -10 -18 -10 -7 0 -6 4 3 10 19 12 23 12 15 0z m11130 -48 c-3 -3 -11 0
-18 7 -9 10 -8 11 6 5 10 -3 15 -9 12 -12z m-10685 -52 c-8 -5 -19 -10 -25
-10 -5 0 -3 5 5 10 8 5 20 10 25 10 6 0 3 -5 -5 -10z m-54 -25 c-11 -8 -25
-15 -30 -15 -6 1 0 7 14 15 32 19 40 18 16 0z m-385 -32 c13 -17 13 -17 -6 -3
-11 8 -22 16 -24 17 -2 2 0 3 6 3 6 0 17 -8 24 -17z m10159 -3 c8 -5 11 -10 5
-10 -5 0 -17 5 -25 10 -8 5 -10 10 -5 10 6 0 17 -5 25 -10z m-9865 -10 c-27
-12 -43 -12 -25 0 8 5 22 9 30 9 10 0 8 -3 -5 -9z m9940 -30 c3 -6 -1 -7 -9
-4 -18 7 -21 14 -7 14 6 0 13 -4 16 -10z m-10025 -10 c-8 -5 -19 -10 -25 -10
-5 0 -3 5 5 10 8 5 20 10 25 10 6 0 3 -5 -5 -10z m-71 -34 c-2 -2 -15 -9 -29
-15 -24 -11 -24 -11 -6 3 16 13 49 24 35 12z m-62 -32 c-3 -3 -12 -4 -19 -1
-8 3 -5 6 6 6 11 1 17 -2 13 -5z m-47 -24 c-8 -5 -19 -10 -25 -10 -5 0 -3 5 5
10 8 5 20 10 25 10 6 0 3 -5 -5 -10z m-55 -30 c-3 -5 -12 -10 -18 -10 -7 0 -6
4 3 10 19 12 23 12 15 0z m-75 -30 c0 -5 -5 -10 -11 -10 -5 0 -7 5 -4 10 3 6
8 10 11 10 2 0 4 -4 4 -10z m1185 -28 c-3 -3 -11 0 -18 7 -9 10 -8 11 6 5 10
-3 15 -9 12 -12z m-1245 4 c0 -2 -8 -10 -17 -17 -16 -13 -17 -12 -4 4 13 16
21 21 21 13z m1105 -96 c-16 -11 -34 -20 -40 -20 -12 0 46 38 60 39 6 1 -3 -8
-20 -19z m565 -10 c-8 -5 -19 -10 -25 -10 -5 0 -3 5 5 10 8 5 20 10 25 10 6 0
3 -5 -5 -10z m-145 -38 c-3 -3 -11 0 -18 7 -9 10 -8 11 6 5 10 -3 15 -9 12
-12z m55 -2 c-8 -5 -19 -10 -25 -10 -5 0 -3 5 5 10 8 5 20 10 25 10 6 0 3 -5
-5 -10z m-1200 -20 c0 -5 -2 -10 -4 -10 -3 0 -8 5 -11 10 -3 6 -1 10 4 10 6 0
11 -4 11 -10z m65 -30 c3 -6 -1 -7 -9 -4 -18 7 -21 14 -7 14 6 0 13 -4 16 -10z
m1045 0 c-8 -5 -19 -10 -25 -10 -5 0 -3 5 5 10 8 5 20 10 25 10 6 0 3 -5 -5
-10z m181 -16 c8 -10 3 -10 -20 2 -17 9 -31 17 -31 19 0 8 40 -9 51 -21z
m1024 -14 c-3 -5 -14 -10 -23 -9 -14 0 -13 2 3 9 27 11 27 11 20 0z m6182 -6
c-3 -3 -12 -4 -19 -1 -8 3 -5 6 6 6 11 1 17 -2 13 -5z m-7115 -24 c18 -11 29
-20 23 -20 -5 0 -23 9 -40 20 -39 26 -25 26 17 0z m888 10 c0 -5 -5 -10 -11
-10 -5 0 -7 5 -4 10 3 6 8 10 11 10 2 0 4 -4 4 -10z m5650 0 c0 -5 -2 -10 -4
-10 -3 0 -8 5 -11 10 -3 6 -1 10 4 10 6 0 11 -4 11 -10z m-6290 -4 c0 -2 -7
-7 -16 -10 -8 -3 -12 -2 -9 4 6 10 25 14 25 6z m1565 -6 c3 -6 -1 -7 -9 -4
-18 7 -21 14 -7 14 6 0 13 -4 16 -10z m3301 -5 c-11 -8 -25 -15 -30 -15 -6 1
0 7 14 15 32 19 40 18 16 0z m933 -11 c14 -12 -19 -1 -35 12 -18 14 -18 14 6
3 14 -6 27 -13 29 -15z m-5199 6 c-8 -5 -19 -10 -25 -10 -5 0 -3 5 5 10 8 5
20 10 25 10 6 0 3 -5 -5 -10z m5730 0 c8 -5 11 -10 5 -10 -5 0 -17 5 -25 10
-8 5 -10 10 -5 10 6 0 17 -5 25 -10z m-7729 -18 c-7 -2 -18 1 -23 6 -8 8 -4 9
13 5 13 -4 18 -8 10 -11z m2468 -8 c14 -12 -19 -1 -35 12 -18 14 -18 14 6 3
14 -6 27 -13 29 -15z m536 8 c-3 -3 -11 0 -18 7 -9 10 -8 11 6 5 10 -3 15 -9
12 -12z m3845 8 c-8 -5 -19 -10 -25 -10 -5 0 -3 5 5 10 8 5 20 10 25 10 6 0 3
-5 -5 -10z m2685 0 c3 -6 -1 -7 -9 -4 -18 7 -21 14 -7 14 6 0 13 -4 16 -10z
m-9445 -20 c0 -5 -5 -10 -11 -10 -5 0 -7 5 -4 10 3 6 8 10 11 10 2 0 4 -4 4
-10z m10625 -8 c-3 -3 -11 0 -18 7 -9 10 -8 11 6 5 10 -3 15 -9 12 -12z
m-11295 -2 c0 -5 -2 -10 -4 -10 -3 0 -8 5 -11 10 -3 6 -1 10 4 10 6 0 11 -4
11 -10z m7350 -10 c-8 -5 -19 -10 -25 -10 -5 0 -3 5 5 10 8 5 20 10 25 10 6 0
3 -5 -5 -10z m1775 0 c-3 -5 -12 -10 -18 -10 -7 0 -6 4 3 10 19 12 23 12 15 0z
m-8515 -4 c0 -2 -7 -7 -16 -10 -8 -3 -12 -2 -9 4 6 10 25 14 25 6z m2510 -6
c8 -5 11 -10 5 -10 -5 0 -17 5 -25 10 -8 5 -10 10 -5 10 6 0 17 -5 25 -10z
m4760 0 c0 -5 -2 -10 -4 -10 -3 0 -8 5 -11 10 -3 6 -1 10 4 10 6 0 11 -4 11
-10z m-7193 -16 c-3 -3 -12 -4 -19 -1 -8 3 -5 6 6 6 11 1 17 -2 13 -5z m6603
-4 c-8 -5 -19 -10 -25 -10 -5 0 -3 5 5 10 8 5 20 10 25 10 6 0 3 -5 -5 -10z
m-7160 -27 c12 -12 7 -11 -20 2 -45 22 -52 29 -20 20 14 -4 32 -14 40 -22z
m3675 -21 c-3 -3 -11 0 -18 7 -9 10 -8 11 6 5 10 -3 15 -9 12 -12z m4215 -2
c19 -11 31 -19 25 -19 -5 0 -26 8 -45 19 -19 11 -30 19 -25 19 6 0 26 -8 45
-19z m-7843 4 c-3 -3 -12 -4 -19 -1 -8 3 -5 6 6 6 11 1 17 -2 13 -5z m1858
-22 c-3 -3 -11 0 -18 7 -9 10 -8 11 6 5 10 -3 15 -9 12 -12z m1810 8 c3 -5 2
-10 -4 -10 -5 0 -13 5 -16 10 -3 6 -2 10 4 10 5 0 13 -4 16 -10z m5060 -20
c-3 -5 -12 -10 -18 -10 -7 0 -6 4 3 10 19 12 23 12 15 0z m-4860 -20 c-3 -5
-12 -10 -18 -10 -7 0 -6 4 3 10 19 12 23 12 15 0z m4081 -6 c18 -14 18 -14 -6
-3 -31 14 -36 19 -24 19 6 0 19 -7 30 -16z m-4731 -14 c3 -6 -1 -7 -9 -4 -18
7 -21 14 -7 14 6 0 13 -4 16 -10z m-3125 -25 c-14 -8 -29 -14 -35 -14 -5 0 1
6 15 14 14 8 30 14 35 14 6 0 -1 -6 -15 -14z m1237 9 c-3 -3 -12 -4 -19 -1 -8
3 -5 6 6 6 11 1 17 -2 13 -5z m6688 -12 c-3 -3 -11 0 -18 7 -9 10 -8 11 6 5
10 -3 15 -9 12 -12z m-7769 -30 c-5 -4 -66 26 -66 33 0 3 16 -3 35 -12 19 -9
33 -18 31 -21z m1681 22 c-3 -3 -12 -4 -19 -1 -8 3 -5 6 6 6 11 1 17 -2 13 -5z
m-1892 -14 c-3 -5 -12 -10 -18 -10 -7 0 -6 4 3 10 19 12 23 12 15 0z m9115 0
c-8 -5 -19 -10 -25 -10 -5 0 -3 5 5 10 8 5 20 10 25 10 6 0 3 -5 -5 -10z
m-5810 -10 c18 -12 2 -12 -25 0 -13 6 -15 9 -5 9 8 0 22 -4 30 -9z m560 0 c8
-5 11 -10 5 -10 -5 0 -17 5 -25 10 -8 5 -10 10 -5 10 6 0 17 -5 25 -10z
m-3595 -28 c-3 -3 -11 0 -18 7 -9 10 -8 11 6 5 10 -3 15 -9 12 -12z m1822 12
c-3 -3 -12 -4 -19 -1 -8 3 -5 6 6 6 11 1 17 -2 13 -5z m1248 -4 c3 -5 1 -10
-4 -10 -6 0 -11 5 -11 10 0 6 2 10 4 10 3 0 8 -4 11 -10z m4775 -10 c8 -5 11
-10 5 -10 -5 0 -17 5 -25 10 -8 5 -10 10 -5 10 6 0 17 -5 25 -10z m1750 -16
c0 -2 -9 0 -20 6 -11 6 -20 13 -20 16 0 2 9 0 20 -6 11 -6 20 -13 20 -16z
m-9560 6 c0 -5 -2 -10 -4 -10 -3 0 -8 5 -11 10 -3 6 -1 10 4 10 6 0 11 -4 11
-10z m1855 -18 c-3 -3 -11 0 -18 7 -9 10 -8 11 6 5 10 -3 15 -9 12 -12z m1390
-2 c-3 -5 -11 -10 -16 -10 -6 0 -7 5 -4 10 3 6 11 10 16 10 6 0 7 -4 4 -10z
m475 -26 c0 -2 -13 2 -30 11 -16 9 -30 18 -30 21 0 2 14 -2 30 -11 17 -9 30
-18 30 -21z m-1125 16 c-3 -5 -12 -10 -18 -10 -7 0 -6 4 3 10 19 12 23 12 15
0z m560 -10 c38 -25 30 -25 -20 0 -22 11 -33 20 -25 20 8 0 29 -9 45 -20z
m6460 10 c3 -6 -1 -7 -9 -4 -18 7 -21 14 -7 14 6 0 13 -4 16 -10z m-10115 -20
c-8 -5 -19 -10 -25 -10 -5 0 -3 5 5 10 8 5 20 10 25 10 6 0 3 -5 -5 -10z
m8970 0 c8 -5 11 -10 5 -10 -5 0 -17 5 -25 10 -8 5 -10 10 -5 10 6 0 17 -5 25
-10z m-8435 -20 c-3 -5 -12 -10 -18 -10 -7 0 -6 4 3 10 19 12 23 12 15 0z
m105 0 c8 -5 11 -10 5 -10 -5 0 -17 5 -25 10 -8 5 -10 10 -5 10 6 0 17 -5 25
-10z m500 -14 c0 -3 -4 -8 -10 -11 -5 -3 -10 -1 -10 4 0 6 5 11 10 11 6 0 10
-2 10 -4z m2470 -6 c-8 -5 -19 -10 -25 -10 -5 0 -3 5 5 10 8 5 20 10 25 10 6
0 3 -5 -5 -10z m-2850 -41 c0 -4 -18 2 -40 12 -22 11 -40 21 -40 23 0 3 18 -3
40 -11 22 -9 40 -19 40 -24z m601 13 c-7 -2 -18 1 -23 6 -8 8 -4 9 13 5 13 -4
18 -8 10 -11z m6574 8 c3 -5 1 -10 -4 -10 -6 0 -11 5 -11 10 0 6 2 10 4 10 3
0 8 -4 11 -10z m450 0 c-3 -5 -11 -10 -16 -10 -6 0 -7 5 -4 10 3 6 11 10 16
10 6 0 7 -4 4 -10z m-8271 -9 c4 -5 -3 -7 -14 -4 -23 6 -26 13 -6 13 8 0 17
-4 20 -9z m333 3 c-3 -3 -12 -4 -19 -1 -8 3 -5 6 6 6 11 1 17 -2 13 -5z m4329
-14 c-51 -25 -59 -25 -21 0 17 11 37 20 45 20 8 -1 -3 -10 -24 -20z m5528 5
c11 -8 16 -15 10 -15 -5 0 -18 7 -28 15 -11 8 -16 15 -10 15 5 0 18 -7 28 -15z
m-1144 -25 c8 -5 11 -10 5 -10 -5 0 -17 5 -25 10 -8 5 -10 10 -5 10 6 0 17 -5
25 -10z m-4440 -4 c0 -2 -7 -7 -16 -10 -8 -3 -12 -2 -9 4 6 10 25 14 25 6z
m-2050 -16 c8 -5 11 -10 5 -10 -5 0 -17 5 -25 10 -8 5 -10 10 -5 10 6 0 17 -5
25 -10z m7720 0 c8 -5 11 -10 5 -10 -5 0 -17 5 -25 10 -8 5 -10 10 -5 10 6 0
17 -5 25 -10z m65 -38 c-3 -3 -11 0 -18 7 -9 10 -8 11 6 5 10 -3 15 -9 12 -12z
m-8998 -38 c-3 -3 -12 -4 -19 -1 -8 3 -5 6 6 6 11 1 17 -2 13 -5z m-132 -64
c-27 -12 -43 -12 -25 0 8 5 22 9 30 9 10 0 8 -3 -5 -9z m90 -148 c-3 -3 -11 0
-18 7 -9 10 -8 11 6 5 10 -3 15 -9 12 -12z m135 -62 c8 -5 11 -10 5 -10 -5 0
-17 5 -25 10 -8 5 -10 10 -5 10 6 0 17 -5 25 -10z m1060 -60 c-8 -5 -19 -10
-25 -10 -5 0 -3 5 5 10 8 5 20 10 25 10 6 0 3 -5 -5 -10z m-40 -15 c0 -2 -13
-11 -30 -20 -38 -19 -40 -11 -2 9 31 17 32 18 32 11z m-90 -49 c0 -2 -7 -7
-16 -10 -8 -3 -12 -2 -9 4 6 10 25 14 25 6z m-70 -36 c-8 -5 -19 -10 -25 -10
-5 0 -3 5 5 10 8 5 20 10 25 10 6 0 3 -5 -5 -10z m1520 -144 c0 -2 -7 -7 -16
-10 -8 -3 -12 -2 -9 4 6 10 25 14 25 6z m3000 -16 c-8 -5 -22 -9 -30 -9 -10 0
-8 3 5 9 27 12 43 12 25 0z m-3620 -14 c0 -2 -7 -7 -16 -10 -8 -3 -12 -2 -9 4
6 10 25 14 25 6z m1790 -1 c0 -6 -137 -75 -147 -75 -6 1 134 77 145 80 1 0 2
-2 2 -5z m1335 -5 c3 -5 1 -10 -4 -10 -6 0 -11 5 -11 10 0 6 2 10 4 10 3 0 8
-4 11 -10z m2195 -10 c-8 -5 -19 -10 -25 -10 -5 0 -3 5 5 10 8 5 20 10 25 10
6 0 3 -5 -5 -10z m-4800 -4 c0 -2 -7 -7 -16 -10 -8 -3 -12 -2 -9 4 6 10 25 14
25 6z m3275 -16 c3 -5 2 -10 -4 -10 -5 0 -13 5 -16 10 -3 6 -2 10 4 10 5 0 13
-4 16 -10z m-3905 -20 c-8 -5 -19 -10 -25 -10 -5 0 -3 5 5 10 8 5 20 10 25 10
6 0 3 -5 -5 -10z m2175 -8 c-3 -3 -11 0 -18 7 -9 10 -8 11 6 5 10 -3 15 -9 12
-12z m1776 0 c-7 -2 -18 1 -23 6 -8 8 -4 9 13 5 13 -4 18 -8 10 -11z m-2774 2
c-3 -3 -12 -4 -19 -1 -8 3 -5 6 6 6 11 1 17 -2 13 -5z m4558 -22 c-3 -3 -11 0
-18 7 -9 10 -8 11 6 5 10 -3 15 -9 12 -12z m-6430 -2 c-3 -5 -12 -10 -18 -10
-7 0 -6 4 3 10 19 12 23 12 15 0z m1720 -18 c-3 -3 -11 0 -18 7 -9 10 -8 11 6
5 10 -3 15 -9 12 -12z m1225 8 c8 -5 11 -10 5 -10 -5 0 -17 5 -25 10 -8 5 -10
10 -5 10 6 0 17 -5 25 -10z m1830 -30 c8 -5 11 -10 5 -10 -5 0 -17 5 -25 10
-8 5 -10 10 -5 10 6 0 17 -5 25 -10z m-3671 -4 c-2 -2 -15 -9 -29 -15 -24 -11
-24 -11 -6 3 16 13 49 24 35 12z m1171 -36 c-8 -5 -19 -10 -25 -10 -5 0 -3 5
5 10 8 5 20 10 25 10 6 0 3 -5 -5 -10z m615 0 c-3 -5 -12 -10 -18 -10 -7 0 -6
4 3 10 19 12 23 12 15 0z m195 0 c8 -5 11 -10 5 -10 -5 0 -17 5 -25 10 -8 5
-10 10 -5 10 6 0 17 -5 25 -10z m-2670 -30 c-8 -5 -19 -10 -25 -10 -5 0 -3 5
5 10 8 5 20 10 25 10 6 0 3 -5 -5 -10z m-1280 -5 c0 -6 -76 -45 -87 -45 -4 1
12 12 37 25 50 27 50 27 50 20z m1230 -15 c0 -5 -5 -10 -11 -10 -5 0 -7 5 -4
10 3 6 8 10 11 10 2 0 4 -4 4 -10z m1810 5 c0 -2 -10 -9 -22 -15 -22 -11 -22
-10 -4 4 21 17 26 19 26 11z m2365 -15 c-3 -5 -12 -10 -18 -10 -7 0 -6 4 3 10
19 12 23 12 15 0z m1155 -4 c0 -2 -7 -7 -16 -10 -8 -3 -12 -2 -9 4 6 10 25 14
25 6z m2260 -16 c8 -5 11 -10 5 -10 -5 0 -17 5 -25 10 -8 5 -10 10 -5 10 6 0
17 -5 25 -10z m-6490 -14 c0 -2 -7 -7 -16 -10 -8 -3 -12 -2 -9 4 6 10 25 14
25 6z m1875 -44 c-3 -3 -11 0 -18 7 -9 10 -8 11 6 5 10 -3 15 -9 12 -12z
m-1385 -17 c-7 -8 -17 -15 -23 -15 -6 0 -2 7 9 15 25 19 30 19 14 0z m-1260
-15 c-8 -5 -19 -10 -25 -10 -5 0 -3 5 5 10 8 5 20 10 25 10 6 0 3 -5 -5 -10z
m2725 0 c13 -6 15 -9 5 -9 -8 0 -22 4 -30 9 -18 12 -2 12 25 0z m4725 -16 c0
-2 -9 0 -20 6 -11 6 -20 13 -20 16 0 2 9 0 20 -6 11 -6 20 -13 20 -16z m-6266
-9 c-10 -8 -23 -15 -28 -15 -6 0 -1 7 10 15 10 8 23 15 28 15 6 0 1 -7 -10
-15z m-1824 -10 c-14 -8 -32 -14 -40 -14 -8 0 -1 6 15 14 40 18 57 18 25 0z
m3440 -5 c8 -5 11 -10 5 -10 -5 0 -17 5 -25 10 -8 5 -10 10 -5 10 6 0 17 -5
25 -10z m1360 0 c-8 -5 -19 -10 -25 -10 -5 0 -3 5 5 10 8 5 20 10 25 10 6 0 3
-5 -5 -10z m-4870 -30 c-8 -5 -19 -10 -25 -10 -5 0 -3 5 5 10 8 5 20 10 25 10
6 0 3 -5 -5 -10z m570 0 c-8 -5 -19 -10 -25 -10 -5 0 -3 5 5 10 8 5 20 10 25
10 6 0 3 -5 -5 -10z m1235 0 c-3 -5 -14 -10 -23 -9 -14 0 -13 2 3 9 27 11 27
11 20 0z m535 0 c8 -5 11 -10 5 -10 -5 0 -17 5 -25 10 -8 5 -10 10 -5 10 6 0
17 -5 25 -10z m-590 -25 c-7 -8 -17 -15 -23 -15 -6 0 -2 7 9 15 25 19 30 19
14 0z m5395 -13 c-3 -3 -11 0 -18 7 -9 10 -8 11 6 5 10 -3 15 -9 12 -12z
m-6680 -12 c-3 -5 -12 -10 -18 -10 -7 0 -6 4 3 10 19 12 23 12 15 0z m7775 0
c-8 -5 -19 -10 -25 -10 -5 0 -3 5 5 10 8 5 20 10 25 10 6 0 3 -5 -5 -10z
m-6570 -15 c-7 -8 -17 -15 -23 -15 -6 0 -2 7 9 15 25 19 30 19 14 0z m2015 5
c3 -6 -1 -7 -9 -4 -18 7 -21 14 -7 14 6 0 13 -4 16 -10z m-3000 -18 c-3 -3
-11 0 -18 7 -9 10 -8 11 6 5 10 -3 15 -9 12 -12z m7771 -18 c18 -14 18 -14 -6
-3 -31 14 -36 19 -24 19 6 0 19 -7 30 -16z m-6851 -4 c-3 -5 -12 -10 -18 -10
-7 0 -6 4 3 10 19 12 23 12 15 0z m5670 0 c3 -6 -1 -7 -9 -4 -18 7 -21 14 -7
14 6 0 13 -4 16 -10z m1465 -146 c0 -2 -9 0 -20 6 -11 6 -20 13 -20 16 0 2 9
0 20 -6 11 -6 20 -13 20 -16z m35 -14 c3 -6 -1 -7 -9 -4 -18 7 -21 14 -7 14 6
0 13 -4 16 -10z m-6178 -466 c-3 -3 -12 -4 -19 -1 -8 3 -5 6 6 6 11 1 17 -2
13 -5z m4178 -22 c-3 -3 -11 0 -18 7 -9 10 -8 11 6 5 10 -3 15 -9 12 -12z
m-5990 -10 c-3 -3 -11 0 -18 7 -9 10 -8 11 6 5 10 -3 15 -9 12 -12z m-498 2
c-3 -3 -12 -4 -19 -1 -8 3 -5 6 6 6 11 1 17 -2 13 -5z m6608 -52 c-3 -3 -11 0
-18 7 -9 10 -8 11 6 5 10 -3 15 -9 12 -12z m-3570 -2 c3 -6 -1 -7 -9 -4 -18 7
-21 14 -7 14 6 0 13 -4 16 -10z m425 0 c-8 -5 -19 -10 -25 -10 -5 0 -3 5 5 10
8 5 20 10 25 10 6 0 3 -5 -5 -10z m191 -8 c-7 -2 -18 1 -23 6 -8 8 -4 9 13 5
13 -4 18 -8 10 -11z m1214 0 c-3 -3 -11 0 -18 7 -9 10 -8 11 6 5 10 -3 15 -9
12 -12z m-4986 4 c-10 -9 -69 -36 -69 -32 0 7 52 35 64 36 5 0 7 -2 5 -4z
m2021 -16 c8 -5 11 -10 5 -10 -5 0 -17 5 -25 10 -8 5 -10 10 -5 10 6 0 17 -5
25 -10z m3005 -8 c-3 -3 -11 0 -18 7 -9 10 -8 11 6 5 10 -3 15 -9 12 -12z
m-2055 -2 c-8 -5 -19 -10 -25 -10 -5 0 -3 5 5 10 8 5 20 10 25 10 6 0 3 -5 -5
-10z m1685 -40 c-3 -5 -12 -10 -18 -10 -7 0 -6 4 3 10 19 12 23 12 15 0z
m-1245 -20 c-8 -5 -19 -10 -25 -10 -5 0 -3 5 5 10 8 5 20 10 25 10 6 0 3 -5
-5 -10z m-3000 -30 c8 -5 11 -10 5 -10 -5 0 -17 5 -25 10 -8 5 -10 10 -5 10 6
0 17 -5 25 -10z m2920 -10 c-8 -5 -19 -10 -25 -10 -5 0 -3 5 5 10 8 5 20 10
25 10 6 0 3 -5 -5 -10z m2455 0 c3 -6 -1 -7 -9 -4 -18 7 -21 14 -7 14 6 0 13
-4 16 -10z m-3095 -40 c-8 -5 -19 -10 -25 -10 -5 0 -3 5 5 10 8 5 20 10 25 10
6 0 3 -5 -5 -10z m-120 -130 c8 -5 11 -10 5 -10 -5 0 -17 5 -25 10 -8 5 -10
10 -5 10 6 0 17 -5 25 -10z m420 0 c-8 -5 -19 -10 -25 -10 -5 0 -3 5 5 10 8 5
20 10 25 10 6 0 3 -5 -5 -10z m2605 -18 c-3 -3 -11 0 -18 7 -9 10 -8 11 6 5
10 -3 15 -9 12 -12z m-2890 -52 c3 -6 -1 -7 -9 -4 -18 7 -21 14 -7 14 6 0 13
-4 16 -10z m-475 -30 c-8 -5 -19 -10 -25 -10 -5 0 -3 5 5 10 8 5 20 10 25 10
6 0 3 -5 -5 -10z m3500 -20 c-8 -5 -19 -10 -25 -10 -5 0 -3 5 5 10 8 5 20 10
25 10 6 0 3 -5 -5 -10z m-3020 -20 c-8 -5 -19 -10 -25 -10 -5 0 -3 5 5 10 8 5
20 10 25 10 6 0 3 -5 -5 -10z"/>
<path d="M715 5960 c-3 -6 1 -7 9 -4 18 7 21 14 7 14 -6 0 -13 -4 -16 -10z"/>
<path d="M366 5735 c-11 -8 -18 -17 -15 -19 2 -2 15 4 28 15 27 22 15 26 -13
4z"/>
<path d="M136 5505 c-3 -8 -1 -15 4 -15 6 0 10 7 10 15 0 8 -2 15 -4 15 -2 0
-6 -7 -10 -15z"/>
<path d="M110 5460 c-9 -6 -10 -10 -3 -10 6 0 15 5 18 10 8 12 4 12 -15 0z"/>
</g>
</svg>
